<mxfile host="app.diagrams.net" modified="2023-10-20T16:16:01.049Z" agent="Mozilla/5.0 (Windows NT 10.0; Win64; x64) AppleWebKit/537.36 (KHTML, like Gecko) Chrome/118.0.0.0 Safari/537.36" etag="_FHiKZ7A6Jnt5If19EGw" version="22.0.0" type="device">
  <diagram name="Page-1" id="yx7YZAX30-dz4g1cz6Pi">
    <mxGraphModel dx="1434" dy="1882" grid="1" gridSize="10" guides="1" tooltips="1" connect="1" arrows="1" fold="1" page="1" pageScale="1" pageWidth="850" pageHeight="1100" math="0" shadow="0">
      <root>
        <mxCell id="0" />
        <mxCell id="1" parent="0" />
        <mxCell id="TQC83Kc0jRJ3zZRU8Dkh-11" value="" style="rounded=1;arcSize=10;dashed=1;strokeColor=#ff0000;fillColor=none;gradientColor=none;dashPattern=8 4;strokeWidth=2;" vertex="1" parent="1">
          <mxGeometry x="210" y="410" width="410" height="120" as="geometry" />
        </mxCell>
        <mxCell id="TQC83Kc0jRJ3zZRU8Dkh-10" value="" style="fillColor=none;strokeColor=#147EBA;dashed=1;verticalAlign=top;fontStyle=0;fontColor=#147EBA;whiteSpace=wrap;html=1;" vertex="1" parent="1">
          <mxGeometry x="474" y="140" width="159" height="580" as="geometry" />
        </mxCell>
        <mxCell id="TQC83Kc0jRJ3zZRU8Dkh-9" value="" style="fillColor=none;strokeColor=#147EBA;dashed=1;verticalAlign=top;fontStyle=0;fontColor=#147EBA;whiteSpace=wrap;html=1;" vertex="1" parent="1">
          <mxGeometry x="200" y="140" width="160" height="580" as="geometry" />
        </mxCell>
        <mxCell id="TQC83Kc0jRJ3zZRU8Dkh-6" value="Private subnet" style="points=[[0,0],[0.25,0],[0.5,0],[0.75,0],[1,0],[1,0.25],[1,0.5],[1,0.75],[1,1],[0.75,1],[0.5,1],[0.25,1],[0,1],[0,0.75],[0,0.5],[0,0.25]];outlineConnect=0;gradientColor=none;html=1;whiteSpace=wrap;fontSize=12;fontStyle=0;container=1;pointerEvents=0;collapsible=0;recursiveResize=0;shape=mxgraph.aws4.group;grIcon=mxgraph.aws4.group_security_group;grStroke=0;strokeColor=#147EBA;fillColor=#E6F2F8;verticalAlign=top;align=left;spacingLeft=30;fontColor=#147EBA;dashed=0;" vertex="1" parent="1">
          <mxGeometry x="487.5" y="420" width="120" height="100" as="geometry" />
        </mxCell>
        <mxCell id="TQC83Kc0jRJ3zZRU8Dkh-8" value="Public subnet" style="points=[[0,0],[0.25,0],[0.5,0],[0.75,0],[1,0],[1,0.25],[1,0.5],[1,0.75],[1,1],[0.75,1],[0.5,1],[0.25,1],[0,1],[0,0.75],[0,0.5],[0,0.25]];outlineConnect=0;gradientColor=none;html=1;whiteSpace=wrap;fontSize=12;fontStyle=0;container=1;pointerEvents=0;collapsible=0;recursiveResize=0;shape=mxgraph.aws4.group;grIcon=mxgraph.aws4.group_security_group;grStroke=0;strokeColor=#248814;fillColor=#E9F3E6;verticalAlign=top;align=left;spacingLeft=30;fontColor=#248814;dashed=0;" vertex="1" parent="1">
          <mxGeometry x="217" y="155" width="124" height="115" as="geometry" />
        </mxCell>
        <mxCell id="TQC83Kc0jRJ3zZRU8Dkh-1" value="" style="sketch=0;points=[[0,0,0],[0.25,0,0],[0.5,0,0],[0.75,0,0],[1,0,0],[0,1,0],[0.25,1,0],[0.5,1,0],[0.75,1,0],[1,1,0],[0,0.25,0],[0,0.5,0],[0,0.75,0],[1,0.25,0],[1,0.5,0],[1,0.75,0]];outlineConnect=0;fontColor=#232F3E;fillColor=#ED7100;strokeColor=#ffffff;dashed=0;verticalLabelPosition=bottom;verticalAlign=top;align=center;html=1;fontSize=12;fontStyle=0;aspect=fixed;shape=mxgraph.aws4.resourceIcon;resIcon=mxgraph.aws4.ec2;" vertex="1" parent="1">
          <mxGeometry x="259" y="195" width="40" height="40" as="geometry" />
        </mxCell>
        <mxCell id="TQC83Kc0jRJ3zZRU8Dkh-3" value="" style="sketch=0;points=[[0,0,0],[0.25,0,0],[0.5,0,0],[0.75,0,0],[1,0,0],[0,1,0],[0.25,1,0],[0.5,1,0],[0.75,1,0],[1,1,0],[0,0.25,0],[0,0.5,0],[0,0.75,0],[1,0.25,0],[1,0.5,0],[1,0.75,0]];outlineConnect=0;fontColor=#232F3E;fillColor=#ED7100;strokeColor=#ffffff;dashed=0;verticalLabelPosition=bottom;verticalAlign=top;align=center;html=1;fontSize=12;fontStyle=0;aspect=fixed;shape=mxgraph.aws4.resourceIcon;resIcon=mxgraph.aws4.ec2;" vertex="1" parent="1">
          <mxGeometry x="534" y="455" width="40" height="40" as="geometry" />
        </mxCell>
        <mxCell id="TQC83Kc0jRJ3zZRU8Dkh-5" value="Private subnet" style="points=[[0,0],[0.25,0],[0.5,0],[0.75,0],[1,0],[1,0.25],[1,0.5],[1,0.75],[1,1],[0.75,1],[0.5,1],[0.25,1],[0,1],[0,0.75],[0,0.5],[0,0.25]];outlineConnect=0;gradientColor=none;html=1;whiteSpace=wrap;fontSize=12;fontStyle=0;container=1;pointerEvents=0;collapsible=0;recursiveResize=0;shape=mxgraph.aws4.group;grIcon=mxgraph.aws4.group_security_group;grStroke=0;strokeColor=#147EBA;fillColor=#E6F2F8;verticalAlign=top;align=left;spacingLeft=30;fontColor=#147EBA;dashed=0;" vertex="1" parent="1">
          <mxGeometry x="218" y="599" width="120" height="100" as="geometry" />
        </mxCell>
        <mxCell id="TQC83Kc0jRJ3zZRU8Dkh-7" value="Private subnet" style="points=[[0,0],[0.25,0],[0.5,0],[0.75,0],[1,0],[1,0.25],[1,0.5],[1,0.75],[1,1],[0.75,1],[0.5,1],[0.25,1],[0,1],[0,0.75],[0,0.5],[0,0.25]];outlineConnect=0;gradientColor=none;html=1;whiteSpace=wrap;fontSize=12;fontStyle=0;container=1;pointerEvents=0;collapsible=0;recursiveResize=0;shape=mxgraph.aws4.group;grIcon=mxgraph.aws4.group_security_group;grStroke=0;strokeColor=#147EBA;fillColor=#E6F2F8;verticalAlign=top;align=left;spacingLeft=30;fontColor=#147EBA;dashed=0;" vertex="1" parent="1">
          <mxGeometry x="220" y="420" width="120" height="100" as="geometry" />
        </mxCell>
        <mxCell id="TQC83Kc0jRJ3zZRU8Dkh-2" value="" style="sketch=0;points=[[0,0,0],[0.25,0,0],[0.5,0,0],[0.75,0,0],[1,0,0],[0,1,0],[0.25,1,0],[0.5,1,0],[0.75,1,0],[1,1,0],[0,0.25,0],[0,0.5,0],[0,0.75,0],[1,0.25,0],[1,0.5,0],[1,0.75,0]];outlineConnect=0;fontColor=#232F3E;fillColor=#ED7100;strokeColor=#ffffff;dashed=0;verticalLabelPosition=bottom;verticalAlign=top;align=center;html=1;fontSize=12;fontStyle=0;aspect=fixed;shape=mxgraph.aws4.resourceIcon;resIcon=mxgraph.aws4.ec2;" vertex="1" parent="1">
          <mxGeometry x="259" y="455" width="40" height="40" as="geometry" />
        </mxCell>
        <mxCell id="TQC83Kc0jRJ3zZRU8Dkh-13" value="" style="sketch=0;outlineConnect=0;fontColor=#232F3E;gradientColor=none;fillColor=#8C4FFF;strokeColor=none;dashed=0;verticalLabelPosition=bottom;verticalAlign=top;align=center;html=1;fontSize=12;fontStyle=0;aspect=fixed;pointerEvents=1;shape=mxgraph.aws4.application_load_balancer;" vertex="1" parent="1">
          <mxGeometry x="397" y="320" width="40" height="40" as="geometry" />
        </mxCell>
        <mxCell id="TQC83Kc0jRJ3zZRU8Dkh-23" value="" style="strokeWidth=1;html=1;shape=mxgraph.flowchart.annotation_2;align=left;labelPosition=right;pointerEvents=1;rotation=90;fontSize=9;" vertex="1" parent="1">
          <mxGeometry x="390.5" y="260.5" width="54" height="243" as="geometry" />
        </mxCell>
        <mxCell id="TQC83Kc0jRJ3zZRU8Dkh-24" value="us-east-1a" style="text;html=1;align=center;verticalAlign=middle;resizable=0;points=[];autosize=1;strokeColor=none;fillColor=default;fontColor=#167ae3;labelBackgroundColor=default;labelBorderColor=#f2f2f2;fontSize=10;" vertex="1" parent="1">
          <mxGeometry x="250" y="107" width="70" height="30" as="geometry" />
        </mxCell>
        <mxCell id="TQC83Kc0jRJ3zZRU8Dkh-26" value="us-east-1b" style="text;html=1;align=center;verticalAlign=middle;resizable=0;points=[];autosize=1;strokeColor=none;fillColor=default;fontColor=#167ae3;labelBackgroundColor=default;labelBorderColor=#f2f2f2;fontSize=10;" vertex="1" parent="1">
          <mxGeometry x="509" y="107" width="70" height="30" as="geometry" />
        </mxCell>
        <mxCell id="TQC83Kc0jRJ3zZRU8Dkh-27" value="VPC" style="points=[[0,0],[0.25,0],[0.5,0],[0.75,0],[1,0],[1,0.25],[1,0.5],[1,0.75],[1,1],[0.75,1],[0.5,1],[0.25,1],[0,1],[0,0.75],[0,0.5],[0,0.25]];outlineConnect=0;gradientColor=none;html=1;whiteSpace=wrap;fontSize=12;fontStyle=0;container=1;pointerEvents=0;collapsible=0;recursiveResize=0;shape=mxgraph.aws4.group;grIcon=mxgraph.aws4.group_vpc;strokeColor=#248814;fillColor=none;verticalAlign=top;align=left;spacingLeft=30;fontColor=#AAB7B8;dashed=0;" vertex="1" parent="1">
          <mxGeometry x="169" y="110" width="511" height="640" as="geometry" />
        </mxCell>
        <mxCell id="TQC83Kc0jRJ3zZRU8Dkh-28" value="" style="sketch=0;outlineConnect=0;fontColor=#232F3E;gradientColor=none;fillColor=#8C4FFF;strokeColor=none;dashed=0;verticalLabelPosition=bottom;verticalAlign=top;align=center;html=1;fontSize=12;fontStyle=0;aspect=fixed;pointerEvents=1;shape=mxgraph.aws4.internet_gateway;" vertex="1" parent="TQC83Kc0jRJ3zZRU8Dkh-27">
          <mxGeometry x="237.5" y="-16" width="30" height="30" as="geometry" />
        </mxCell>
        <mxCell id="TQC83Kc0jRJ3zZRU8Dkh-34" value="" style="sketch=0;outlineConnect=0;fontColor=#232F3E;gradientColor=none;fillColor=#8C4FFF;strokeColor=none;dashed=0;verticalLabelPosition=bottom;verticalAlign=top;align=center;html=1;fontSize=12;fontStyle=0;aspect=fixed;pointerEvents=1;shape=mxgraph.aws4.route_table;" vertex="1" parent="TQC83Kc0jRJ3zZRU8Dkh-27">
          <mxGeometry x="237.11" y="125" width="30.79" height="30" as="geometry" />
        </mxCell>
        <mxCell id="TQC83Kc0jRJ3zZRU8Dkh-35" value="" style="endArrow=classic;html=1;rounded=0;" edge="1" parent="TQC83Kc0jRJ3zZRU8Dkh-27" source="TQC83Kc0jRJ3zZRU8Dkh-28">
          <mxGeometry width="50" height="50" relative="1" as="geometry">
            <mxPoint x="251" y="30" as="sourcePoint" />
            <mxPoint x="252" y="125" as="targetPoint" />
          </mxGeometry>
        </mxCell>
        <mxCell id="TQC83Kc0jRJ3zZRU8Dkh-37" value="" style="endArrow=classic;html=1;rounded=0;" edge="1" parent="TQC83Kc0jRJ3zZRU8Dkh-27">
          <mxGeometry width="50" height="50" relative="1" as="geometry">
            <mxPoint x="251" y="180" as="sourcePoint" />
            <mxPoint x="251" y="210" as="targetPoint" />
          </mxGeometry>
        </mxCell>
        <mxCell id="TQC83Kc0jRJ3zZRU8Dkh-30" value="" style="sketch=0;outlineConnect=0;fontColor=#232F3E;gradientColor=none;strokeColor=#232F3E;fillColor=#ffffff;dashed=0;verticalLabelPosition=bottom;verticalAlign=top;align=center;html=1;fontSize=12;fontStyle=0;aspect=fixed;shape=mxgraph.aws4.resourceIcon;resIcon=mxgraph.aws4.internet_alt1;" vertex="1" parent="1">
          <mxGeometry x="399" y="-55" width="50" height="50" as="geometry" />
        </mxCell>
        <mxCell id="TQC83Kc0jRJ3zZRU8Dkh-31" value="" style="sketch=0;outlineConnect=0;fontColor=#232F3E;gradientColor=none;fillColor=#232F3D;strokeColor=none;dashed=0;verticalLabelPosition=bottom;verticalAlign=top;align=center;html=1;fontSize=12;fontStyle=0;aspect=fixed;pointerEvents=1;shape=mxgraph.aws4.users;" vertex="1" parent="1">
          <mxGeometry x="132" y="-55" width="45" height="45" as="geometry" />
        </mxCell>
        <mxCell id="TQC83Kc0jRJ3zZRU8Dkh-32" value="" style="endArrow=none;html=1;rounded=0;entryX=0.24;entryY=0.42;entryDx=0;entryDy=0;entryPerimeter=0;" edge="1" parent="1" target="TQC83Kc0jRJ3zZRU8Dkh-30">
          <mxGeometry width="50" height="50" relative="1" as="geometry">
            <mxPoint x="169" y="-33" as="sourcePoint" />
            <mxPoint x="420" y="-30" as="targetPoint" />
          </mxGeometry>
        </mxCell>
        <mxCell id="TQC83Kc0jRJ3zZRU8Dkh-33" value="" style="endArrow=classic;html=1;rounded=0;" edge="1" parent="1" target="TQC83Kc0jRJ3zZRU8Dkh-28">
          <mxGeometry width="50" height="50" relative="1" as="geometry">
            <mxPoint x="423.5" y="-20" as="sourcePoint" />
            <mxPoint x="423.5" y="70" as="targetPoint" />
          </mxGeometry>
        </mxCell>
        <mxCell id="TQC83Kc0jRJ3zZRU8Dkh-39" value="AWS Cloud" style="points=[[0,0],[0.25,0],[0.5,0],[0.75,0],[1,0],[1,0.25],[1,0.5],[1,0.75],[1,1],[0.75,1],[0.5,1],[0.25,1],[0,1],[0,0.75],[0,0.5],[0,0.25]];outlineConnect=0;gradientColor=none;html=1;whiteSpace=wrap;fontSize=12;fontStyle=0;container=1;pointerEvents=0;collapsible=0;recursiveResize=0;shape=mxgraph.aws4.group;grIcon=mxgraph.aws4.group_aws_cloud_alt;strokeColor=#232F3E;fillColor=none;verticalAlign=top;align=left;spacingLeft=30;fontColor=#232F3E;dashed=0;" vertex="1" parent="1">
          <mxGeometry x="80" y="20" width="670" height="810" as="geometry" />
        </mxCell>
        <mxCell id="TQC83Kc0jRJ3zZRU8Dkh-4" value="" style="sketch=0;outlineConnect=0;fontColor=#232F3E;gradientColor=none;fillColor=#C925D1;strokeColor=none;dashed=0;verticalLabelPosition=bottom;verticalAlign=top;align=center;html=1;fontSize=12;fontStyle=0;aspect=fixed;pointerEvents=1;shape=mxgraph.aws4.rds_instance;" vertex="1" parent="TQC83Kc0jRJ3zZRU8Dkh-39">
          <mxGeometry x="177" y="618" width="39" height="39" as="geometry" />
        </mxCell>
        <mxCell id="TQC83Kc0jRJ3zZRU8Dkh-44" value="" style="sketch=0;points=[[0,0,0],[0.25,0,0],[0.5,0,0],[0.75,0,0],[1,0,0],[0,1,0],[0.25,1,0],[0.5,1,0],[0.75,1,0],[1,1,0],[0,0.25,0],[0,0.5,0],[0,0.75,0],[1,0.25,0],[1,0.5,0],[1,0.75,0]];outlineConnect=0;fontColor=#232F3E;fillColor=#ED7100;strokeColor=#ffffff;dashed=0;verticalLabelPosition=bottom;verticalAlign=top;align=center;html=1;fontSize=12;fontStyle=0;aspect=fixed;shape=mxgraph.aws4.resourceIcon;resIcon=mxgraph.aws4.auto_scaling2;" vertex="1" parent="TQC83Kc0jRJ3zZRU8Dkh-39">
          <mxGeometry x="325" y="400" width="30" height="30" as="geometry" />
        </mxCell>
        <mxCell id="TQC83Kc0jRJ3zZRU8Dkh-45" value="Public subnet" style="points=[[0,0],[0.25,0],[0.5,0],[0.75,0],[1,0],[1,0.25],[1,0.5],[1,0.75],[1,1],[0.75,1],[0.5,1],[0.25,1],[0,1],[0,0.75],[0,0.5],[0,0.25]];outlineConnect=0;gradientColor=none;html=1;whiteSpace=wrap;fontSize=12;fontStyle=0;container=1;pointerEvents=0;collapsible=0;recursiveResize=0;shape=mxgraph.aws4.group;grIcon=mxgraph.aws4.group_security_group;grStroke=0;strokeColor=#248814;fillColor=#E9F3E6;verticalAlign=top;align=left;spacingLeft=30;fontColor=#248814;dashed=0;" vertex="1" parent="TQC83Kc0jRJ3zZRU8Dkh-39">
          <mxGeometry x="410" y="140" width="124" height="115" as="geometry" />
        </mxCell>
        <mxCell id="TQC83Kc0jRJ3zZRU8Dkh-46" value="" style="sketch=0;points=[[0,0,0],[0.25,0,0],[0.5,0,0],[0.75,0,0],[1,0,0],[0,1,0],[0.25,1,0],[0.5,1,0],[0.75,1,0],[1,1,0],[0,0.25,0],[0,0.5,0],[0,0.75,0],[1,0.25,0],[1,0.5,0],[1,0.75,0]];outlineConnect=0;fontColor=#232F3E;fillColor=#ED7100;strokeColor=#ffffff;dashed=0;verticalLabelPosition=bottom;verticalAlign=top;align=center;html=1;fontSize=12;fontStyle=0;aspect=fixed;shape=mxgraph.aws4.resourceIcon;resIcon=mxgraph.aws4.ec2;" vertex="1" parent="TQC83Kc0jRJ3zZRU8Dkh-45">
          <mxGeometry x="45" y="37.5" width="40" height="40" as="geometry" />
        </mxCell>
        <mxCell id="TQC83Kc0jRJ3zZRU8Dkh-47" value="" style="endArrow=classic;html=1;rounded=0;" edge="1" parent="TQC83Kc0jRJ3zZRU8Dkh-39">
          <mxGeometry width="50" height="50" relative="1" as="geometry">
            <mxPoint x="196" y="470" as="sourcePoint" />
            <mxPoint x="196" y="590" as="targetPoint" />
          </mxGeometry>
        </mxCell>
        <mxCell id="TQC83Kc0jRJ3zZRU8Dkh-49" value="" style="shape=partialRectangle;whiteSpace=wrap;html=1;bottom=0;right=0;fillColor=none;rotation=-180;" vertex="1" parent="TQC83Kc0jRJ3zZRU8Dkh-39">
          <mxGeometry x="197" y="474.94" width="283.15" height="72" as="geometry" />
        </mxCell>
        <mxCell id="TQC83Kc0jRJ3zZRU8Dkh-51" value="Public&lt;br style=&quot;font-size: 10px;&quot;&gt;Route Table" style="text;html=1;align=center;verticalAlign=middle;resizable=0;points=[];autosize=1;strokeColor=none;fillColor=none;fontSize=10;fontColor=#8624d6;" vertex="1" parent="TQC83Kc0jRJ3zZRU8Dkh-39">
          <mxGeometry x="299" y="237" width="80" height="40" as="geometry" />
        </mxCell>
        <mxCell id="TQC83Kc0jRJ3zZRU8Dkh-56" value="" style="shape=partialRectangle;whiteSpace=wrap;html=1;bottom=1;right=1;left=1;top=0;fillColor=none;routingCenterX=-0.5;" vertex="1" parent="TQC83Kc0jRJ3zZRU8Dkh-39">
          <mxGeometry x="190" y="252" width="300" height="46" as="geometry" />
        </mxCell>
        <mxCell id="TQC83Kc0jRJ3zZRU8Dkh-38" value="Region" style="points=[[0,0],[0.25,0],[0.5,0],[0.75,0],[1,0],[1,0.25],[1,0.5],[1,0.75],[1,1],[0.75,1],[0.5,1],[0.25,1],[0,1],[0,0.75],[0,0.5],[0,0.25]];outlineConnect=0;gradientColor=none;html=1;whiteSpace=wrap;fontSize=12;fontStyle=0;container=1;pointerEvents=0;collapsible=0;recursiveResize=0;shape=mxgraph.aws4.group;grIcon=mxgraph.aws4.group_region;strokeColor=#147EBA;fillColor=none;verticalAlign=top;align=left;spacingLeft=30;fontColor=#147EBA;dashed=1;" vertex="1" parent="TQC83Kc0jRJ3zZRU8Dkh-39">
          <mxGeometry x="45" y="33.5" width="600" height="743" as="geometry" />
        </mxCell>
        <mxCell id="TQC83Kc0jRJ3zZRU8Dkh-58" value="" style="rounded=1;arcSize=10;dashed=1;strokeColor=#ff0000;fillColor=none;gradientColor=none;dashPattern=8 4;strokeWidth=2;" vertex="1" parent="TQC83Kc0jRJ3zZRU8Dkh-38">
          <mxGeometry x="82.5" y="91" width="417.5" height="149" as="geometry" />
        </mxCell>
        <mxCell id="TQC83Kc0jRJ3zZRU8Dkh-40" value="Private subnet" style="points=[[0,0],[0.25,0],[0.5,0],[0.75,0],[1,0],[1,0.25],[1,0.5],[1,0.75],[1,1],[0.75,1],[0.5,1],[0.25,1],[0,1],[0,0.75],[0,0.5],[0,0.25]];outlineConnect=0;gradientColor=none;html=1;whiteSpace=wrap;fontSize=12;fontStyle=0;container=1;pointerEvents=0;collapsible=0;recursiveResize=0;shape=mxgraph.aws4.group;grIcon=mxgraph.aws4.group_security_group;grStroke=0;strokeColor=#147EBA;fillColor=#E6F2F8;verticalAlign=top;align=left;spacingLeft=30;fontColor=#147EBA;dashed=0;" vertex="1" parent="1">
          <mxGeometry x="489.5" y="600" width="120" height="100" as="geometry" />
        </mxCell>
        <mxCell id="TQC83Kc0jRJ3zZRU8Dkh-41" value="" style="sketch=0;outlineConnect=0;fontColor=#232F3E;gradientColor=none;fillColor=#C925D1;strokeColor=none;dashed=0;verticalLabelPosition=bottom;verticalAlign=top;align=center;html=1;fontSize=12;fontStyle=0;aspect=fixed;pointerEvents=1;shape=mxgraph.aws4.rds_instance;" vertex="1" parent="TQC83Kc0jRJ3zZRU8Dkh-40">
          <mxGeometry x="40.5" y="38" width="39" height="39" as="geometry" />
        </mxCell>
        <mxCell id="TQC83Kc0jRJ3zZRU8Dkh-42" value="" style="rounded=1;arcSize=10;dashed=1;strokeColor=#ff0000;fillColor=none;gradientColor=none;dashPattern=8 4;strokeWidth=2;" vertex="1" parent="1">
          <mxGeometry x="207.5" y="591" width="415" height="116" as="geometry" />
        </mxCell>
        <mxCell id="TQC83Kc0jRJ3zZRU8Dkh-50" value="Auto Scaling" style="text;html=1;align=center;verticalAlign=middle;resizable=0;points=[];autosize=1;strokeColor=none;fillColor=none;fontSize=10;fontColor=#fd9608;" vertex="1" parent="1">
          <mxGeometry x="378.5" y="442" width="80" height="30" as="geometry" />
        </mxCell>
        <mxCell id="TQC83Kc0jRJ3zZRU8Dkh-55" value="" style="outlineConnect=0;dashed=0;verticalLabelPosition=bottom;verticalAlign=top;align=center;html=1;shape=mxgraph.aws3.vpc_nat_gateway;fillColor=#F58534;gradientColor=none;" vertex="1" parent="1">
          <mxGeometry x="314" y="243.5" width="24" height="23.5" as="geometry" />
        </mxCell>
        <mxCell id="TQC83Kc0jRJ3zZRU8Dkh-57" style="edgeStyle=orthogonalEdgeStyle;rounded=0;orthogonalLoop=1;jettySize=auto;html=1;exitX=1;exitY=0.5;exitDx=0;exitDy=0;entryX=0.988;entryY=0.512;entryDx=0;entryDy=0;entryPerimeter=0;" edge="1" parent="1" source="TQC83Kc0jRJ3zZRU8Dkh-9" target="TQC83Kc0jRJ3zZRU8Dkh-9">
          <mxGeometry relative="1" as="geometry" />
        </mxCell>
      </root>
    </mxGraphModel>
  </diagram>
</mxfile>
